<svg width="20" height="18" viewBox="0 0 20 18" fill="none" xmlns="http://www.w3.org/2000/svg">
<path d="M9.49219 17.2539C9.45312 17.2539 9.41406 17.2474 9.375 17.2344C9.33594 17.2214 9.29688 17.2083 9.25781 17.1953C9.23177 17.1823 9.08203 17.0977 8.80859 16.9414C8.54818 16.7721 8.20312 16.5443 7.77344 16.2578C7.34375 15.9714 6.85547 15.6263 6.30859 15.2227C5.77474 14.806 5.22786 14.3438 4.66797 13.8359C3.99089 13.237 3.38542 12.6315 2.85156 12.0195C2.33073 11.3945 1.875 10.776 1.48438 10.1641C0.989583 9.36979 0.61849 8.58854 0.371094 7.82031C0.123698 7.03906 0 6.26432 0 5.49609C0 4.77995 0.136719 4.10286 0.410156 3.46484C0.683594 2.82682 1.05469 2.27344 1.52344 1.80469C2.00521 1.32292 2.5651 0.945312 3.20312 0.671875C3.84115 0.385416 4.52474 0.242188 5.25391 0.242188C5.73568 0.242188 6.23047 0.333334 6.73828 0.515625C7.24609 0.697916 7.72786 0.951823 8.18359 1.27734C8.44401 1.47266 8.6849 1.6875 8.90625 1.92188C9.14062 2.15625 9.33594 2.39714 9.49219 2.64453C9.66146 2.39714 9.85677 2.15625 10.0781 1.92188C10.3125 1.6875 10.5599 1.47266 10.8203 1.27734C11.276 0.951823 11.7513 0.697916 12.2461 0.515625C12.7539 0.333334 13.2552 0.242188 13.75 0.242188C14.4792 0.242188 15.1562 0.385416 15.7812 0.671875C16.4193 0.945312 16.9727 1.32292 17.4414 1.80469C17.9232 2.27344 18.3008 2.82682 18.5742 3.46484C18.8607 4.10286 19.0039 4.77995 19.0039 5.49609C19.0039 6.26432 18.8802 7.03906 18.6328 7.82031C18.3854 8.58854 18.0143 9.36979 17.5195 10.1641C17.1289 10.776 16.6667 11.3945 16.1328 12.0195C15.599 12.6315 15 13.237 14.3359 13.8359C13.763 14.3438 13.2096 14.806 12.6758 15.2227C12.1419 15.6263 11.6602 15.9714 11.2305 16.2578C10.8008 16.5443 10.4492 16.7721 10.1758 16.9414C9.91536 17.0977 9.77214 17.1823 9.74609 17.1953C9.70703 17.2083 9.66797 17.2214 9.62891 17.2344C9.58984 17.2474 9.54427 17.2539 9.49219 17.2539ZM5.25391 1.25781C4.66797 1.25781 4.11458 1.36849 3.59375 1.58984C3.08594 1.8112 2.63672 2.11719 2.24609 2.50781C1.85547 2.88542 1.54948 3.33464 1.32812 3.85547C1.10677 4.36328 0.996094 4.91016 0.996094 5.49609C0.996094 6.26432 1.1263 7.00651 1.38672 7.72266C1.66016 8.4388 2.00521 9.1224 2.42188 9.77344C2.83854 10.4115 3.30078 11.0104 3.80859 11.5703C4.32943 12.1302 4.83073 12.638 5.3125 13.0938C6.19792 13.888 7.03776 14.5521 7.83203 15.0859C8.6263 15.6198 9.17969 15.9844 9.49219 16.1797C9.81771 15.9844 10.3776 15.6198 11.1719 15.0859C11.9661 14.5521 12.7995 13.888 13.6719 13.0938C14.1667 12.638 14.668 12.1302 15.1758 11.5703C15.6966 11.0104 16.1654 10.4115 16.582 9.77344C16.9987 9.1224 17.3372 8.4388 17.5977 7.72266C17.8711 7.00651 18.0078 6.26432 18.0078 5.49609C18.0078 4.91016 17.8906 4.36328 17.6562 3.85547C17.4349 3.33464 17.1289 2.88542 16.7383 2.50781C16.3607 2.11719 15.9115 1.8112 15.3906 1.58984C14.8828 1.36849 14.3359 1.25781 13.75 1.25781C12.9036 1.25781 12.1159 1.54427 11.3867 2.11719C10.6576 2.67708 10.1888 3.27604 9.98047 3.91406C9.94141 4.01823 9.8763 4.10286 9.78516 4.16797C9.70703 4.22005 9.60938 4.24609 9.49219 4.24609C9.38802 4.24609 9.29036 4.22005 9.19922 4.16797C9.12109 4.10286 9.0625 4.01823 9.02344 3.91406C8.8151 3.27604 8.34635 2.67708 7.61719 2.11719C6.88802 1.54427 6.10026 1.25781 5.25391 1.25781Z" fill="white"/>
</svg>
