<svg width="19" height="21" viewBox="0 0 19 21" fill="none" xmlns="http://www.w3.org/2000/svg">
<path d="M18.8672 19.4102L12.9297 12.9258C13.5938 12.2227 14.1016 11.4284 14.4531 10.543C14.8177 9.65755 15 8.72656 15 7.75C15 6.7474 14.8112 5.79036 14.4336 4.87891C14.056 3.96745 13.5156 3.15365 12.8125 2.4375C12.0964 1.73438 11.2826 1.19401 10.3711 0.816406C9.45964 0.438802 8.5026 0.25 7.5 0.25C6.4974 0.25 5.54036 0.438802 4.62891 0.816406C3.71745 1.19401 2.91016 1.73438 2.20703 2.4375C1.49089 3.15365 0.94401 3.96745 0.566406 4.87891C0.188802 5.79036 0 6.7474 0 7.75C0 8.7526 0.188802 9.70964 0.566406 10.6211C0.94401 11.5326 1.49089 12.3464 2.20703 13.0625C2.91016 13.7656 3.71745 14.306 4.62891 14.6836C5.54036 15.0612 6.4974 15.25 7.5 15.25C8.35938 15.25 9.1862 15.1133 9.98047 14.8398C10.7878 14.5534 11.5234 14.1432 12.1875 13.6094L18.125 20.0938C18.1771 20.1458 18.2357 20.1849 18.3008 20.2109C18.3659 20.237 18.431 20.25 18.4961 20.25C18.5612 20.25 18.6198 20.237 18.6719 20.2109C18.737 20.1979 18.7956 20.1654 18.8477 20.1133C18.9388 20.0221 18.9844 19.9049 18.9844 19.7617C18.9974 19.6315 18.9583 19.5143 18.8672 19.4102ZM0.996094 7.75C0.996094 6.85156 1.16536 6.01172 1.50391 5.23047C1.85547 4.4362 2.32422 3.74609 2.91016 3.16016C3.49609 2.57422 4.17969 2.11198 4.96094 1.77344C5.75521 1.42188 6.60156 1.24609 7.5 1.24609C8.39844 1.24609 9.23828 1.42188 10.0195 1.77344C10.8138 2.11198 11.5039 2.57422 12.0898 3.16016C12.6758 3.74609 13.138 4.4362 13.4766 5.23047C13.8281 6.01172 14.0039 6.85156 14.0039 7.75C14.0039 8.64844 13.8281 9.49479 13.4766 10.2891C13.138 11.0703 12.6758 11.7539 12.0898 12.3398C11.5039 12.9258 10.8138 13.3945 10.0195 13.7461C9.23828 14.0846 8.39844 14.2539 7.5 14.2539C6.60156 14.2539 5.75521 14.0846 4.96094 13.7461C4.17969 13.3945 3.49609 12.9258 2.91016 12.3398C2.32422 11.7539 1.85547 11.0703 1.50391 10.2891C1.16536 9.49479 0.996094 8.64844 0.996094 7.75Z" fill="white"/>
</svg>
