<svg width="48" height="48" viewBox="0 0 48 48" fill="none" xmlns="http://www.w3.org/2000/svg">
<circle cx="24" cy="24" r="24" fill="white"/>
<path d="M34 33.6836L33.0039 19.7188C32.9909 19.5885 32.9323 19.4779 32.8281 19.3867C32.737 19.2956 32.6263 19.25 32.4961 19.25H30.2109L26.3438 15.4023C26.2526 15.2982 26.1354 15.2461 25.9922 15.2461C25.862 15.2461 25.7448 15.2982 25.6406 15.4023L25.1523 15.8906C25.0482 15.9948 24.9961 16.1185 24.9961 16.2617C24.9961 16.3919 25.0482 16.5026 25.1523 16.5938C25.2435 16.6979 25.3542 16.75 25.4844 16.75C25.6276 16.75 25.7513 16.6979 25.8555 16.5938L25.9922 16.457L28.7852 19.25H27.2031L22.8477 14.8945C22.7565 14.8034 22.6393 14.7578 22.4961 14.7578C22.3659 14.7578 22.2487 14.8034 22.1445 14.8945L17.7891 19.25H15.5039C15.3737 19.25 15.2565 19.2956 15.1523 19.3867C15.0612 19.4779 15.0091 19.5885 14.9961 19.7188L14 33.7227C14 33.7878 14.0065 33.8529 14.0195 33.918C14.0456 33.9831 14.0846 34.0417 14.1367 34.0938C14.1758 34.1458 14.2279 34.1849 14.293 34.2109C14.3581 34.237 14.4232 34.25 14.4883 34.25H33.4922C33.6354 34.25 33.7526 34.1979 33.8438 34.0938C33.9479 34.0026 34 33.8854 34 33.7422C34 33.7422 34 33.7357 34 33.7227C34 33.7096 34 33.6966 34 33.6836ZM22.4961 15.9492L25.7969 19.25H19.2148L22.4961 15.9492ZM15.0352 33.2539L15.9727 20.2461H18.0039H32.0273L32.9648 33.2539H15.0352ZM24 28.2539C23.4531 28.2539 22.9258 28.1107 22.418 27.8242C21.9232 27.5247 21.487 27.1081 21.1094 26.5742C20.7578 26.0534 20.4844 25.4674 20.2891 24.8164C20.0938 24.1523 19.9961 23.4622 19.9961 22.7461C19.9961 22.6159 20.0417 22.5052 20.1328 22.4141C20.237 22.3099 20.3607 22.2578 20.5039 22.2578C20.6341 22.2578 20.7448 22.3099 20.8359 22.4141C20.9401 22.5052 20.9922 22.6159 20.9922 22.7461C20.9922 23.3711 21.0703 23.9635 21.2266 24.5234C21.3958 25.0703 21.6302 25.5651 21.9297 26.0078C22.2161 26.4115 22.5352 26.724 22.8867 26.9453C23.2513 27.1536 23.6224 27.2578 24 27.2578C24.3776 27.2578 24.7422 27.1536 25.0938 26.9453C25.4583 26.724 25.7839 26.4115 26.0703 26.0078C26.3698 25.5651 26.5977 25.0703 26.7539 24.5234C26.9232 23.9635 27.0078 23.3711 27.0078 22.7461C27.0078 22.6159 27.0534 22.5052 27.1445 22.4141C27.2487 22.3099 27.3659 22.2578 27.4961 22.2578C27.6393 22.2578 27.7565 22.3099 27.8477 22.4141C27.9518 22.5052 28.0039 22.6159 28.0039 22.7461C28.0039 23.4622 27.9062 24.1523 27.7109 24.8164C27.5156 25.4674 27.2422 26.0534 26.8906 26.5742C26.513 27.1081 26.0703 27.5247 25.5625 27.8242C25.0677 28.1107 24.5469 28.2539 24 28.2539Z" fill="#4F4F4F"/>
</svg>
